<svg xmlns="http://www.w3.org/2000/svg" xmlns:xlink="http://www.w3.org/1999/xlink" width="219.984" height="63.723" viewBox="0 0 219.984 63.723">
  <defs>
    <filter id="ic_layers_24px" x="0" y="0" width="60.482" height="63.723" filterUnits="userSpaceOnUse">
      <feOffset dy="2" input="SourceAlpha"/>
      <feGaussianBlur stdDeviation="1" result="blur"/>
      <feFlood flood-opacity="0.129"/>
      <feComposite operator="in" in2="blur"/>
      <feComposite in="SourceGraphic"/>
    </filter>
  </defs>
  <g id="Group_3" data-name="Group 3" transform="translate(-137 -35.004)">
    <g id="Group_2" data-name="Group 2" transform="translate(-7050.505 -7200.307)">
      <g id="Group_1" data-name="Group 1" transform="translate(7190.505 7236.311)">
        <g transform="matrix(1, 0, 0, 1, -3, -1)" filter="url(#ic_layers_24px)">
          <path id="ic_layers_24px-2" data-name="ic layers 24px" d="M7217.716,7286.37l-22.309-17.343-4.9,3.813,27.241,21.189,27.241-21.189-4.933-3.844Zm.029-7.687,22.279-17.344,4.962-3.844-27.241-21.189L7190.5,7257.5l4.934,3.844Z" transform="translate(-7187.5 -7235.31)" fill="#eee"/>
        </g>
        <path id="Path_1" data-name="Path 1" d="M7196.271,7246.795a10.07,10.07,0,0,1,12.84-6.157c4.039,1.42,7.532,4.708,6.729,9.514s-7.955,5.069-9.222,9.8" transform="translate(-7178.812 -7228.688)" fill="none" stroke="#583fcf" stroke-miterlimit="10" stroke-width="1"/>
      </g>
      <text id="whatstack" transform="translate(7261.489 7275.398)" fill="#583fcf" font-size="30"><tspan x="0" y="0">what</tspan><tspan y="0" fill="#eee">stack</tspan></text>
    </g>
  </g>
</svg>
